<svg xmlns="http://www.w3.org/2000/svg" xmlns:xlink="http://www.w3.org/1999/xlink" width="687" zoomAndPan="magnify" viewBox="0 0 515.25 471.749986" height="629" preserveAspectRatio="xMidYMid meet" version="1.0"><defs><g/><clipPath id="a8b983bc7a"><path d="M 0 0.21875 L 514.5 0.21875 L 514.5 471.28125 L 0 471.28125 Z M 0 0.21875 " clip-rule="nonzero"/></clipPath><clipPath id="f25dbc4cca"><path d="M 257.25 0.21875 L 307.1875 65.121094 L 385.875 31.773438 L 393.679688 110.839844 L 480.035156 117.984375 L 443.613281 190.03125 L 514.5 235.75 L 443.613281 281.46875 L 480.035156 353.515625 L 393.679688 360.660156 L 385.875 439.726562 L 307.1875 406.378906 L 257.25 471.28125 L 207.3125 406.378906 L 128.625 439.726562 L 120.824219 360.660156 L 34.464844 353.515625 L 70.886719 281.46875 L 0 235.75 L 70.886719 190.03125 L 34.464844 117.984375 L 120.824219 110.839844 L 128.625 31.773438 L 207.3125 65.121094 Z M 257.25 0.21875 " clip-rule="nonzero"/></clipPath><linearGradient x1="0" gradientTransform="matrix(2.00977, 0, 0, 1.840095, 0, 0.218016)" y1="0" x2="255.999991" gradientUnits="userSpaceOnUse" y2="0" id="7afe6d1d93"><stop stop-opacity="1" stop-color="rgb(80.39856%, 100%, 84.698486%)" offset="0"/><stop stop-opacity="1" stop-color="rgb(80.311584%, 99.891663%, 84.757996%)" offset="0.0078125"/><stop stop-opacity="1" stop-color="rgb(80.136108%, 99.676514%, 84.87854%)" offset="0.015625"/><stop stop-opacity="1" stop-color="rgb(79.960632%, 99.461365%, 84.997559%)" offset="0.0234375"/><stop stop-opacity="1" stop-color="rgb(79.786682%, 99.246216%, 85.116577%)" offset="0.03125"/><stop stop-opacity="1" stop-color="rgb(79.611206%, 99.032593%, 85.237122%)" offset="0.0390625"/><stop stop-opacity="1" stop-color="rgb(79.43573%, 98.817444%, 85.35614%)" offset="0.046875"/><stop stop-opacity="1" stop-color="rgb(79.26178%, 98.602295%, 85.476685%)" offset="0.0546875"/><stop stop-opacity="1" stop-color="rgb(79.086304%, 98.387146%, 85.595703%)" offset="0.0625"/><stop stop-opacity="1" stop-color="rgb(78.910828%, 98.171997%, 85.714722%)" offset="0.0703125"/><stop stop-opacity="1" stop-color="rgb(78.736877%, 97.958374%, 85.835266%)" offset="0.078125"/><stop stop-opacity="1" stop-color="rgb(78.561401%, 97.743225%, 85.954285%)" offset="0.0859375"/><stop stop-opacity="1" stop-color="rgb(78.385925%, 97.528076%, 86.073303%)" offset="0.09375"/><stop stop-opacity="1" stop-color="rgb(78.211975%, 97.312927%, 86.193848%)" offset="0.101562"/><stop stop-opacity="1" stop-color="rgb(78.036499%, 97.097778%, 86.312866%)" offset="0.109375"/><stop stop-opacity="1" stop-color="rgb(77.861023%, 96.884155%, 86.431885%)" offset="0.117188"/><stop stop-opacity="1" stop-color="rgb(77.685547%, 96.669006%, 86.552429%)" offset="0.125"/><stop stop-opacity="1" stop-color="rgb(77.511597%, 96.453857%, 86.671448%)" offset="0.132812"/><stop stop-opacity="1" stop-color="rgb(77.336121%, 96.238708%, 86.790466%)" offset="0.140625"/><stop stop-opacity="1" stop-color="rgb(77.160645%, 96.02356%, 86.911011%)" offset="0.148437"/><stop stop-opacity="1" stop-color="rgb(76.986694%, 95.809937%, 87.030029%)" offset="0.15625"/><stop stop-opacity="1" stop-color="rgb(76.811218%, 95.594788%, 87.149048%)" offset="0.164063"/><stop stop-opacity="1" stop-color="rgb(76.635742%, 95.379639%, 87.269592%)" offset="0.171875"/><stop stop-opacity="1" stop-color="rgb(76.461792%, 95.16449%, 87.388611%)" offset="0.179688"/><stop stop-opacity="1" stop-color="rgb(76.286316%, 94.949341%, 87.507629%)" offset="0.1875"/><stop stop-opacity="1" stop-color="rgb(76.11084%, 94.735718%, 87.628174%)" offset="0.195312"/><stop stop-opacity="1" stop-color="rgb(75.93689%, 94.520569%, 87.747192%)" offset="0.203125"/><stop stop-opacity="1" stop-color="rgb(75.761414%, 94.30542%, 87.866211%)" offset="0.210937"/><stop stop-opacity="1" stop-color="rgb(75.585938%, 94.090271%, 87.986755%)" offset="0.21875"/><stop stop-opacity="1" stop-color="rgb(75.410461%, 93.875122%, 88.105774%)" offset="0.226563"/><stop stop-opacity="1" stop-color="rgb(75.236511%, 93.661499%, 88.224792%)" offset="0.234375"/><stop stop-opacity="1" stop-color="rgb(75.061035%, 93.44635%, 88.345337%)" offset="0.242188"/><stop stop-opacity="1" stop-color="rgb(74.885559%, 93.231201%, 88.464355%)" offset="0.25"/><stop stop-opacity="1" stop-color="rgb(74.711609%, 93.016052%, 88.583374%)" offset="0.257812"/><stop stop-opacity="1" stop-color="rgb(74.536133%, 92.800903%, 88.703918%)" offset="0.265625"/><stop stop-opacity="1" stop-color="rgb(74.360657%, 92.58728%, 88.822937%)" offset="0.273438"/><stop stop-opacity="1" stop-color="rgb(74.186707%, 92.372131%, 88.941956%)" offset="0.28125"/><stop stop-opacity="1" stop-color="rgb(74.01123%, 92.156982%, 89.0625%)" offset="0.289062"/><stop stop-opacity="1" stop-color="rgb(73.835754%, 91.941833%, 89.181519%)" offset="0.296875"/><stop stop-opacity="1" stop-color="rgb(73.661804%, 91.726685%, 89.300537%)" offset="0.304688"/><stop stop-opacity="1" stop-color="rgb(73.486328%, 91.513062%, 89.421082%)" offset="0.3125"/><stop stop-opacity="1" stop-color="rgb(73.310852%, 91.297913%, 89.5401%)" offset="0.320312"/><stop stop-opacity="1" stop-color="rgb(73.136902%, 91.082764%, 89.659119%)" offset="0.328125"/><stop stop-opacity="1" stop-color="rgb(72.961426%, 90.867615%, 89.779663%)" offset="0.335938"/><stop stop-opacity="1" stop-color="rgb(72.78595%, 90.652466%, 89.898682%)" offset="0.34375"/><stop stop-opacity="1" stop-color="rgb(72.610474%, 90.438843%, 90.0177%)" offset="0.351562"/><stop stop-opacity="1" stop-color="rgb(72.436523%, 90.223694%, 90.138245%)" offset="0.359375"/><stop stop-opacity="1" stop-color="rgb(72.261047%, 90.008545%, 90.257263%)" offset="0.367188"/><stop stop-opacity="1" stop-color="rgb(72.085571%, 89.793396%, 90.376282%)" offset="0.375"/><stop stop-opacity="1" stop-color="rgb(71.911621%, 89.578247%, 90.496826%)" offset="0.382812"/><stop stop-opacity="1" stop-color="rgb(71.736145%, 89.364624%, 90.615845%)" offset="0.390625"/><stop stop-opacity="1" stop-color="rgb(71.560669%, 89.149475%, 90.734863%)" offset="0.398438"/><stop stop-opacity="1" stop-color="rgb(71.386719%, 88.934326%, 90.855408%)" offset="0.40625"/><stop stop-opacity="1" stop-color="rgb(71.211243%, 88.719177%, 90.974426%)" offset="0.414062"/><stop stop-opacity="1" stop-color="rgb(71.035767%, 88.504028%, 91.093445%)" offset="0.421875"/><stop stop-opacity="1" stop-color="rgb(70.861816%, 88.290405%, 91.213989%)" offset="0.429688"/><stop stop-opacity="1" stop-color="rgb(70.68634%, 88.075256%, 91.333008%)" offset="0.4375"/><stop stop-opacity="1" stop-color="rgb(70.510864%, 87.860107%, 91.452026%)" offset="0.445312"/><stop stop-opacity="1" stop-color="rgb(70.336914%, 87.644958%, 91.572571%)" offset="0.453125"/><stop stop-opacity="1" stop-color="rgb(70.161438%, 87.42981%, 91.691589%)" offset="0.460938"/><stop stop-opacity="1" stop-color="rgb(69.985962%, 87.216187%, 91.810608%)" offset="0.46875"/><stop stop-opacity="1" stop-color="rgb(69.810486%, 87.001038%, 91.931152%)" offset="0.476562"/><stop stop-opacity="1" stop-color="rgb(69.636536%, 86.785889%, 92.050171%)" offset="0.484375"/><stop stop-opacity="1" stop-color="rgb(69.46106%, 86.57074%, 92.169189%)" offset="0.492188"/><stop stop-opacity="1" stop-color="rgb(69.285583%, 86.355591%, 92.289734%)" offset="0.5"/><stop stop-opacity="1" stop-color="rgb(69.111633%, 86.141968%, 92.408752%)" offset="0.507812"/><stop stop-opacity="1" stop-color="rgb(68.936157%, 85.926819%, 92.527771%)" offset="0.515625"/><stop stop-opacity="1" stop-color="rgb(68.760681%, 85.71167%, 92.648315%)" offset="0.523437"/><stop stop-opacity="1" stop-color="rgb(68.586731%, 85.496521%, 92.767334%)" offset="0.53125"/><stop stop-opacity="1" stop-color="rgb(68.411255%, 85.281372%, 92.886353%)" offset="0.539062"/><stop stop-opacity="1" stop-color="rgb(68.235779%, 85.067749%, 93.006897%)" offset="0.546875"/><stop stop-opacity="1" stop-color="rgb(68.061829%, 84.8526%, 93.125916%)" offset="0.554687"/><stop stop-opacity="1" stop-color="rgb(67.886353%, 84.637451%, 93.244934%)" offset="0.5625"/><stop stop-opacity="1" stop-color="rgb(67.710876%, 84.422302%, 93.365479%)" offset="0.570312"/><stop stop-opacity="1" stop-color="rgb(67.536926%, 84.207153%, 93.484497%)" offset="0.578125"/><stop stop-opacity="1" stop-color="rgb(67.36145%, 83.99353%, 93.603516%)" offset="0.585937"/><stop stop-opacity="1" stop-color="rgb(67.185974%, 83.778381%, 93.72406%)" offset="0.59375"/><stop stop-opacity="1" stop-color="rgb(67.010498%, 83.563232%, 93.843079%)" offset="0.601562"/><stop stop-opacity="1" stop-color="rgb(66.836548%, 83.348083%, 93.962097%)" offset="0.609375"/><stop stop-opacity="1" stop-color="rgb(66.661072%, 83.132935%, 94.082642%)" offset="0.617188"/><stop stop-opacity="1" stop-color="rgb(66.485596%, 82.919312%, 94.20166%)" offset="0.625"/><stop stop-opacity="1" stop-color="rgb(66.311646%, 82.704163%, 94.320679%)" offset="0.632812"/><stop stop-opacity="1" stop-color="rgb(66.136169%, 82.489014%, 94.441223%)" offset="0.640625"/><stop stop-opacity="1" stop-color="rgb(65.960693%, 82.273865%, 94.560242%)" offset="0.648438"/><stop stop-opacity="1" stop-color="rgb(65.786743%, 82.058716%, 94.67926%)" offset="0.65625"/><stop stop-opacity="1" stop-color="rgb(65.611267%, 81.845093%, 94.799805%)" offset="0.664063"/><stop stop-opacity="1" stop-color="rgb(65.435791%, 81.629944%, 94.918823%)" offset="0.671875"/><stop stop-opacity="1" stop-color="rgb(65.261841%, 81.414795%, 95.037842%)" offset="0.679688"/><stop stop-opacity="1" stop-color="rgb(65.086365%, 81.199646%, 95.158386%)" offset="0.6875"/><stop stop-opacity="1" stop-color="rgb(64.910889%, 80.984497%, 95.277405%)" offset="0.695313"/><stop stop-opacity="1" stop-color="rgb(64.736938%, 80.770874%, 95.396423%)" offset="0.703125"/><stop stop-opacity="1" stop-color="rgb(64.561462%, 80.555725%, 95.516968%)" offset="0.710938"/><stop stop-opacity="1" stop-color="rgb(64.385986%, 80.340576%, 95.635986%)" offset="0.71875"/><stop stop-opacity="1" stop-color="rgb(64.21051%, 80.125427%, 95.755005%)" offset="0.726563"/><stop stop-opacity="1" stop-color="rgb(64.03656%, 79.910278%, 95.875549%)" offset="0.734375"/><stop stop-opacity="1" stop-color="rgb(63.861084%, 79.696655%, 95.994568%)" offset="0.742188"/><stop stop-opacity="1" stop-color="rgb(63.685608%, 79.481506%, 96.113586%)" offset="0.75"/><stop stop-opacity="1" stop-color="rgb(63.511658%, 79.266357%, 96.234131%)" offset="0.757812"/><stop stop-opacity="1" stop-color="rgb(63.336182%, 79.051208%, 96.353149%)" offset="0.765625"/><stop stop-opacity="1" stop-color="rgb(63.160706%, 78.83606%, 96.472168%)" offset="0.773437"/><stop stop-opacity="1" stop-color="rgb(62.986755%, 78.622437%, 96.592712%)" offset="0.78125"/><stop stop-opacity="1" stop-color="rgb(62.811279%, 78.407288%, 96.711731%)" offset="0.789062"/><stop stop-opacity="1" stop-color="rgb(62.635803%, 78.192139%, 96.83075%)" offset="0.796875"/><stop stop-opacity="1" stop-color="rgb(62.461853%, 77.97699%, 96.951294%)" offset="0.804687"/><stop stop-opacity="1" stop-color="rgb(62.286377%, 77.761841%, 97.070312%)" offset="0.8125"/><stop stop-opacity="1" stop-color="rgb(62.110901%, 77.548218%, 97.189331%)" offset="0.820312"/><stop stop-opacity="1" stop-color="rgb(61.936951%, 77.333069%, 97.309875%)" offset="0.828125"/><stop stop-opacity="1" stop-color="rgb(61.761475%, 77.11792%, 97.428894%)" offset="0.835937"/><stop stop-opacity="1" stop-color="rgb(61.585999%, 76.902771%, 97.547913%)" offset="0.84375"/><stop stop-opacity="1" stop-color="rgb(61.410522%, 76.687622%, 97.668457%)" offset="0.851562"/><stop stop-opacity="1" stop-color="rgb(61.236572%, 76.473999%, 97.787476%)" offset="0.859375"/><stop stop-opacity="1" stop-color="rgb(61.061096%, 76.25885%, 97.906494%)" offset="0.867188"/><stop stop-opacity="1" stop-color="rgb(60.88562%, 76.043701%, 98.027039%)" offset="0.875"/><stop stop-opacity="1" stop-color="rgb(60.71167%, 75.828552%, 98.146057%)" offset="0.882812"/><stop stop-opacity="1" stop-color="rgb(60.536194%, 75.613403%, 98.265076%)" offset="0.890625"/><stop stop-opacity="1" stop-color="rgb(60.360718%, 75.39978%, 98.38562%)" offset="0.898438"/><stop stop-opacity="1" stop-color="rgb(60.186768%, 75.184631%, 98.504639%)" offset="0.90625"/><stop stop-opacity="1" stop-color="rgb(60.011292%, 74.969482%, 98.623657%)" offset="0.914063"/><stop stop-opacity="1" stop-color="rgb(59.835815%, 74.754333%, 98.744202%)" offset="0.921875"/><stop stop-opacity="1" stop-color="rgb(59.661865%, 74.539185%, 98.86322%)" offset="0.929688"/><stop stop-opacity="1" stop-color="rgb(59.486389%, 74.325562%, 98.982239%)" offset="0.9375"/><stop stop-opacity="1" stop-color="rgb(59.310913%, 74.110413%, 99.102783%)" offset="0.945313"/><stop stop-opacity="1" stop-color="rgb(59.136963%, 73.895264%, 99.221802%)" offset="0.953125"/><stop stop-opacity="1" stop-color="rgb(58.961487%, 73.680115%, 99.34082%)" offset="0.960938"/><stop stop-opacity="1" stop-color="rgb(58.786011%, 73.464966%, 99.461365%)" offset="0.96875"/><stop stop-opacity="1" stop-color="rgb(58.610535%, 73.251343%, 99.580383%)" offset="0.976563"/><stop stop-opacity="1" stop-color="rgb(58.436584%, 73.036194%, 99.699402%)" offset="0.984375"/><stop stop-opacity="1" stop-color="rgb(58.261108%, 72.821045%, 99.819946%)" offset="0.992188"/><stop stop-opacity="1" stop-color="rgb(58.085632%, 72.605896%, 99.938965%)" offset="1"/></linearGradient></defs><g clip-path="url(#a8b983bc7a)"><g clip-path="url(#f25dbc4cca)"><path fill="url(#7afe6d1d93)" d="M 0 0.21875 L 0 471.28125 L 514.5 471.28125 L 514.5 0.21875 Z M 0 0.21875 " fill-rule="nonzero"/></g></g><g fill="#000000" fill-opacity="1"><g transform="translate(223.058119, 240.618079)"><g><path d="M 9.554688 -14.9375 L 2.855469 -14.9375 C 2.128906 -14.9375 1.648438 -14.453125 1.648438 -13.726562 L 1.648438 -1.207031 C 1.648438 -0.484375 2.128906 0 2.855469 0 L 9.554688 0 C 9.820312 0 9.996094 -0.175781 9.996094 -0.4375 L 9.996094 -2.417969 C 9.996094 -2.679688 9.820312 -2.855469 9.554688 -2.855469 L 4.832031 -2.855469 C 4.765625 -2.855469 4.722656 -2.898438 4.722656 -2.964844 L 4.722656 -5.929688 L 8.894531 -5.929688 C 9.160156 -5.929688 9.335938 -6.105469 9.335938 -6.371094 L 9.335938 -8.347656 C 9.335938 -8.609375 9.160156 -8.785156 8.894531 -8.785156 L 4.722656 -8.785156 L 4.722656 -11.972656 C 4.722656 -12.035156 4.765625 -12.082031 4.832031 -12.082031 L 9.554688 -12.082031 C 9.820312 -12.082031 9.996094 -12.257812 9.996094 -12.519531 L 9.996094 -14.496094 C 9.996094 -14.761719 9.820312 -14.9375 9.554688 -14.9375 Z M 9.554688 -14.9375 "/></g></g></g><g fill="#000000" fill-opacity="1"><g transform="translate(234.259815, 240.618079)"><g><path d="M 1.648438 -15.15625 L 1.648438 -0.660156 C 1.648438 -0.261719 1.910156 0 2.304688 0 L 4.019531 0 C 4.414062 0 4.679688 -0.261719 4.679688 -0.660156 L 4.679688 -15.15625 C 4.679688 -15.550781 4.414062 -15.816406 4.019531 -15.816406 L 2.304688 -15.816406 C 1.910156 -15.816406 1.648438 -15.550781 1.648438 -15.15625 Z M 1.648438 -15.15625 "/></g></g></g><g fill="#000000" fill-opacity="1"><g transform="translate(240.585485, 240.618079)"><g/></g></g><g fill="#000000" fill-opacity="1"><g transform="translate(247.174717, 240.618079)"><g><path d="M 2.855469 -14.9375 C 2.128906 -14.9375 1.648438 -14.453125 1.648438 -13.726562 L 1.648438 -0.660156 C 1.648438 -0.261719 1.910156 0 2.304688 0 L 4.0625 0 C 4.460938 0 4.722656 -0.261719 4.722656 -0.660156 L 4.722656 -4.394531 L 7.46875 -4.394531 C 10.234375 -4.394531 12.082031 -6.238281 12.082031 -9.007812 L 12.082031 -10.324219 C 12.082031 -13.089844 10.234375 -14.9375 7.46875 -14.9375 Z M 7.359375 -12.082031 C 8.347656 -12.082031 9.007812 -11.421875 9.007812 -10.433594 L 9.007812 -8.894531 C 9.007812 -7.90625 8.347656 -7.25 7.359375 -7.25 L 4.832031 -7.25 C 4.765625 -7.25 4.722656 -7.292969 4.722656 -7.359375 L 4.722656 -11.972656 C 4.722656 -12.035156 4.765625 -12.082031 4.832031 -12.082031 Z M 7.359375 -12.082031 "/></g></g></g><g fill="#000000" fill-opacity="1"><g transform="translate(260.133545, 240.618079)"><g><path d="M 1.648438 -15.15625 L 1.648438 -0.660156 C 1.648438 -0.261719 1.910156 0 2.304688 0 L 4.019531 0 C 4.414062 0 4.679688 -0.261719 4.679688 -0.660156 L 4.679688 -15.15625 C 4.679688 -15.550781 4.414062 -15.816406 4.019531 -15.816406 L 2.304688 -15.816406 C 1.910156 -15.816406 1.648438 -15.550781 1.648438 -15.15625 Z M 1.648438 -15.15625 "/></g></g></g><g fill="#000000" fill-opacity="1"><g transform="translate(266.459214, 240.618079)"><g><path d="M 8.304688 -0.660156 C 8.304688 -0.261719 8.566406 0 8.960938 0 L 10.457031 0 C 10.851562 0 11.113281 -0.261719 11.113281 -0.660156 L 11.113281 -7.6875 C 11.113281 -10.191406 9.445312 -11.863281 6.941406 -11.863281 L 5.492188 -11.863281 C 2.988281 -11.863281 1.316406 -10.191406 1.316406 -7.6875 L 1.316406 -3.515625 C 1.316406 -1.273438 2.8125 0.21875 5.050781 0.21875 L 5.667969 0.21875 C 6.742188 0.21875 7.644531 -0.132812 8.257812 -0.746094 L 8.304688 -0.746094 Z M 4.347656 -7.6875 C 4.347656 -8.542969 4.921875 -9.117188 5.777344 -9.117188 L 6.65625 -9.117188 C 7.511719 -9.117188 8.082031 -8.542969 8.082031 -7.6875 L 8.082031 -3.953125 C 8.082031 -3.097656 7.511719 -2.527344 6.65625 -2.527344 L 5.777344 -2.527344 C 4.921875 -2.527344 4.347656 -3.097656 4.347656 -3.953125 Z M 4.347656 -7.6875 "/></g></g></g><g fill="#000000" fill-opacity="1"><g transform="translate(278.890905, 240.618079)"><g><path d="M 1.429688 -0.660156 C 1.429688 -0.261719 1.691406 0 2.085938 0 L 3.800781 0 C 4.195312 0 4.460938 -0.261719 4.460938 -0.660156 L 4.460938 -7.027344 C 4.460938 -8.28125 5.292969 -9.117188 6.546875 -9.117188 L 6.765625 -9.117188 C 7.621094 -9.117188 8.191406 -8.542969 8.191406 -7.6875 L 8.191406 -0.660156 C 8.191406 -0.261719 8.457031 0 8.851562 0 L 10.566406 0 C 10.960938 0 11.222656 -0.261719 11.222656 -0.660156 L 11.222656 -8.238281 C 11.222656 -10.410156 9.773438 -11.863281 7.601562 -11.863281 C 6.148438 -11.863281 5.007812 -11.421875 4.285156 -10.675781 L 4.238281 -10.675781 L 4.238281 -10.984375 C 4.238281 -11.378906 3.976562 -11.640625 3.582031 -11.640625 L 2.085938 -11.640625 C 1.691406 -11.640625 1.429688 -11.378906 1.429688 -10.984375 Z M 1.429688 -0.660156 "/></g></g></g></svg>